<mxfile host="app.diagrams.net" agent="Mozilla/5.0 (Windows NT 10.0; Win64; x64) AppleWebKit/537.36 (KHTML, like Gecko) Chrome/138.0.0.0 Safari/537.36" version="28.0.4">
  <diagram name="Page-1" id="5tON0AAZj7jog3mkVmuX">
    <mxGraphModel dx="786" dy="399" grid="1" gridSize="10" guides="1" tooltips="1" connect="1" arrows="1" fold="1" page="1" pageScale="1" pageWidth="850" pageHeight="1100" math="0" shadow="0">
      <root>
        <mxCell id="0" />
        <mxCell id="1" parent="0" />
        <mxCell id="2" value="Handheld Device" style="whiteSpace=wrap;strokeWidth=2;fillColor=#647687;fontColor=#ffffff;strokeColor=#314354;fontSize=17;fontStyle=1" parent="1" vertex="1">
          <mxGeometry x="307" y="8" width="180" height="54" as="geometry" />
        </mxCell>
        <mxCell id="3" value="Button" style="whiteSpace=wrap;strokeWidth=2;" parent="1" vertex="1">
          <mxGeometry x="8" y="112" width="108" height="54" as="geometry" />
        </mxCell>
        <mxCell id="4" value="Screen" style="whiteSpace=wrap;strokeWidth=2;" parent="1" vertex="1">
          <mxGeometry x="234" y="112" width="108" height="54" as="geometry" />
        </mxCell>
        <mxCell id="5" value="Sleek Ergonomic Design" style="whiteSpace=wrap;strokeWidth=2;" parent="1" vertex="1">
          <mxGeometry x="392" y="112" width="228" height="54" as="geometry" />
        </mxCell>
        <mxCell id="6" value="Sensor Window" style="whiteSpace=wrap;strokeWidth=2;fillColor=#eeeeee;strokeColor=#36393d;" parent="1" vertex="1">
          <mxGeometry x="671" y="112" width="167" height="54" as="geometry" />
        </mxCell>
        <mxCell id="7" value="Scan" style="whiteSpace=wrap;strokeWidth=2;" parent="1" vertex="1">
          <mxGeometry x="16" y="228" width="93" height="54" as="geometry" />
        </mxCell>
        <mxCell id="8" value="BioScore: 85 (Green), Compost" style="whiteSpace=wrap;strokeWidth=2;" parent="1" vertex="1">
          <mxGeometry x="158" y="216" width="260" height="78" as="geometry" />
        </mxCell>
        <mxCell id="9" value="" style="curved=1;startArrow=none;endArrow=block;exitX=0;exitY=0.76;entryX=0.5;entryY=0;" parent="1" source="2" target="3" edge="1">
          <mxGeometry relative="1" as="geometry">
            <Array as="points">
              <mxPoint x="62" y="87" />
            </Array>
          </mxGeometry>
        </mxCell>
        <mxCell id="10" value="" style="curved=1;startArrow=none;endArrow=block;exitX=0.19;exitY=1;entryX=0.5;entryY=0;" parent="1" source="2" target="4" edge="1">
          <mxGeometry relative="1" as="geometry">
            <Array as="points">
              <mxPoint x="288" y="87" />
            </Array>
          </mxGeometry>
        </mxCell>
        <mxCell id="11" value="" style="curved=1;startArrow=none;endArrow=block;exitX=0.82;exitY=1;entryX=0.5;entryY=0;" parent="1" source="2" target="5" edge="1">
          <mxGeometry relative="1" as="geometry">
            <Array as="points">
              <mxPoint x="507" y="87" />
            </Array>
          </mxGeometry>
        </mxCell>
        <mxCell id="12" value="" style="curved=1;startArrow=none;endArrow=block;exitX=1;exitY=0.74;entryX=0.5;entryY=0;" parent="1" source="2" target="6" edge="1">
          <mxGeometry relative="1" as="geometry">
            <Array as="points">
              <mxPoint x="754" y="87" />
            </Array>
          </mxGeometry>
        </mxCell>
        <mxCell id="13" value="" style="curved=1;startArrow=none;endArrow=block;exitX=0.5;exitY=1;entryX=0.49;entryY=0;" parent="1" source="3" target="7" edge="1">
          <mxGeometry relative="1" as="geometry">
            <Array as="points" />
          </mxGeometry>
        </mxCell>
        <mxCell id="14" value="" style="curved=1;startArrow=none;endArrow=block;exitX=0.5;exitY=1;entryX=0.5;entryY=0;" parent="1" source="4" target="8" edge="1">
          <mxGeometry relative="1" as="geometry">
            <Array as="points" />
          </mxGeometry>
        </mxCell>
      </root>
    </mxGraphModel>
  </diagram>
</mxfile>
